<svg width="38" height="38" viewBox="0 0 38 38" fill="none" xmlns="http://www.w3.org/2000/svg">
<rect width="38" height="38" rx="19" fill="#F2FCFF"/>
<path d="M19.0014 21.454C20.357 21.454 21.456 20.3551 21.456 18.9995C21.456 17.6439 20.357 16.5449 19.0014 16.5449C17.6458 16.5449 16.5469 17.6439 16.5469 18.9995C16.5469 20.3551 17.6458 21.454 19.0014 21.454Z" stroke="#121224" stroke-linecap="round" stroke-linejoin="round"/>
<path d="M25.0545 21.4545C24.9456 21.7013 24.9131 21.9751 24.9613 22.2405C25.0094 22.5059 25.1359 22.7508 25.3245 22.9436L25.3736 22.9927C25.5258 23.1447 25.6465 23.3252 25.7288 23.5238C25.8112 23.7225 25.8536 23.9354 25.8536 24.1505C25.8536 24.3655 25.8112 24.5784 25.7288 24.7771C25.6465 24.9757 25.5258 25.1562 25.3736 25.3082C25.2217 25.4603 25.0412 25.581 24.8425 25.6634C24.6439 25.7457 24.431 25.7881 24.2159 25.7881C24.0009 25.7881 23.7879 25.7457 23.5893 25.6634C23.3906 25.581 23.2102 25.4603 23.0582 25.3082L23.0091 25.2591C22.8163 25.0705 22.5714 24.9439 22.3059 24.8958C22.0405 24.8477 21.7668 24.8802 21.52 24.9891C21.278 25.0928 21.0716 25.265 20.9263 25.4845C20.7809 25.704 20.7029 25.9613 20.7018 26.2245V26.3636C20.7018 26.7976 20.5294 27.2138 20.2225 27.5207C19.9157 27.8276 19.4994 28 19.0655 28C18.6315 28 18.2152 27.8276 17.9084 27.5207C17.6015 27.2138 17.4291 26.7976 17.4291 26.3636V26.29C17.4228 26.0192 17.3351 25.7565 17.1775 25.5362C17.0199 25.3159 16.7997 25.1481 16.5455 25.0545C16.2987 24.9456 16.0249 24.9131 15.7595 24.9613C15.4941 25.0094 15.2492 25.1359 15.0564 25.3245L15.0073 25.3736C14.8553 25.5258 14.6748 25.6465 14.4762 25.7288C14.2775 25.8112 14.0646 25.8536 13.8495 25.8536C13.6345 25.8536 13.4216 25.8112 13.2229 25.7288C13.0243 25.6465 12.8438 25.5258 12.6918 25.3736C12.5397 25.2217 12.419 25.0412 12.3366 24.8425C12.2543 24.6439 12.2119 24.431 12.2119 24.2159C12.2119 24.0009 12.2543 23.7879 12.3366 23.5893C12.419 23.3906 12.5397 23.2102 12.6918 23.0582L12.7409 23.0091C12.9295 22.8163 13.0561 22.5714 13.1042 22.3059C13.1523 22.0405 13.1198 21.7668 13.0109 21.52C12.9072 21.278 12.735 21.0716 12.5155 20.9263C12.296 20.7809 12.0387 20.7029 11.7755 20.7018H11.6364C11.2024 20.7018 10.7862 20.5294 10.4793 20.2225C10.1724 19.9157 10 19.4994 10 19.0655C10 18.6315 10.1724 18.2152 10.4793 17.9084C10.7862 17.6015 11.2024 17.4291 11.6364 17.4291H11.71C11.9808 17.4228 12.2435 17.3351 12.4638 17.1775C12.6841 17.0199 12.8519 16.7997 12.9455 16.5455C13.0544 16.2987 13.0869 16.0249 13.0387 15.7595C12.9906 15.4941 12.8641 15.2492 12.6755 15.0564L12.6264 15.0073C12.4742 14.8553 12.3535 14.6748 12.2712 14.4762C12.1888 14.2775 12.1464 14.0646 12.1464 13.8495C12.1464 13.6345 12.1888 13.4216 12.2712 13.2229C12.3535 13.0243 12.4742 12.8438 12.6264 12.6918C12.7783 12.5397 12.9588 12.419 13.1575 12.3366C13.3561 12.2543 13.569 12.2119 13.7841 12.2119C13.9991 12.2119 14.2121 12.2543 14.4107 12.3366C14.6094 12.419 14.7898 12.5397 14.9418 12.6918L14.9909 12.7409C15.1837 12.9295 15.4286 13.0561 15.6941 13.1042C15.9595 13.1523 16.2332 13.1198 16.48 13.0109H16.5455C16.7874 12.9072 16.9938 12.735 17.1392 12.5155C17.2846 12.296 17.3626 12.0387 17.3636 11.7755V11.6364C17.3636 11.2024 17.536 10.7862 17.8429 10.4793C18.1498 10.1724 18.566 10 19 10C19.434 10 19.8502 10.1724 20.1571 10.4793C20.464 10.7862 20.6364 11.2024 20.6364 11.6364V11.71C20.6374 11.9733 20.7154 12.2305 20.8608 12.45C21.0062 12.6695 21.2126 12.8417 21.4545 12.9455C21.7013 13.0544 21.9751 13.0869 22.2405 13.0387C22.5059 12.9906 22.7508 12.8641 22.9436 12.6755L22.9927 12.6264C23.1447 12.4742 23.3252 12.3535 23.5238 12.2712C23.7225 12.1888 23.9354 12.1464 24.1505 12.1464C24.3655 12.1464 24.5784 12.1888 24.7771 12.2712C24.9757 12.3535 25.1562 12.4742 25.3082 12.6264C25.4603 12.7783 25.581 12.9588 25.6634 13.1575C25.7457 13.3561 25.7881 13.569 25.7881 13.7841C25.7881 13.9991 25.7457 14.2121 25.6634 14.4107C25.581 14.6094 25.4603 14.7898 25.3082 14.9418L25.2591 14.9909C25.0705 15.1837 24.9439 15.4286 24.8958 15.6941C24.8477 15.9595 24.8802 16.2332 24.9891 16.48V16.5455C25.0928 16.7874 25.265 16.9938 25.4845 17.1392C25.704 17.2846 25.9613 17.3626 26.2245 17.3636H26.3636C26.7976 17.3636 27.2138 17.536 27.5207 17.8429C27.8276 18.1498 28 18.566 28 19C28 19.434 27.8276 19.8502 27.5207 20.1571C27.2138 20.464 26.7976 20.6364 26.3636 20.6364H26.29C26.0267 20.6374 25.7695 20.7154 25.55 20.8608C25.3305 21.0062 25.1583 21.2126 25.0545 21.4545V21.4545Z" stroke="#121224" stroke-linecap="round" stroke-linejoin="round"/>
</svg>